PathFileType	4	(X/Y/Z)	D:\Research_projects\MuscleProsody\BulkSports2Dtrack\RetrackedSports2D\p1_sample60_cam3\p1_sample60_cam3_Sports2D\p1_sample60_cam3_Sports2D_px_person00.trc
DataRate	CameraRate	NumFrames	NumMarkers	Units	OrigDataRate	OrigDataStartFrame	OrigNumFrames
60	60	4	22	m	60	97	780
Frame#	Time	Hip			RHip			RKnee			RAnkle			RBigToe			RSmallToe			RHeel			LHip			LKnee			LAnkle			LBigToe			LSmallToe			LHeel			Neck			Head			Nose			RShoulder			RElbow			RWrist			LShoulder			LElbow			LWrist		
		X1	Y1	Z1	X2	Y2	Z2	X3	Y3	Z3	X4	Y4	Z4	X5	Y5	Z5	X6	Y6	Z6	X7	Y7	Z7	X8	Y8	Z8	X9	Y9	Z9	X10	Y10	Z10	X11	Y11	Z11	X12	Y12	Z12	X13	Y13	Z13	X14	Y14	Z14	X15	Y15	Z15	X16	Y16	Z16	X17	Y17	Z17	X18	Y18	Z18	X19	Y19	Z19	X20	Y20	Z20	X21	Y21	Z21	X22	Y22	Z22
97	1.6166666666666667	224.9641971128268	552.9747238814809	0.0	200.62265111907874	552.7309134316	0.0	203.27873811601756	666.3475999738193	0.0	218.36902515655413	769.2279395345835	0.0	188.0947649288657	812.3645228524064	0.0	184.4106112483181	800.7581465166671	0.0	233.46192740045382	784.9239044124632	0.0	249.02943450658415	556.7417528774189	0.0	248.92018234317672	672.817659062967	0.0	260.2451334994957	784.2223777505654	0.0	222.55469323580215	825.2150265694471	0.0	240.8693207336379	831.053771106052	0.0	276.55395349788773	799.548358208431	0.0	233.33584602258762	356.3181596108464	0.0	210.17219787733723	266.54853972819274	0.0	190.23424042024695	320.6752705219102	0.0	195.7530598614393	392.7158959099859	0.0	162.16931707664995	461.02745761594406	0.0	123.06944745788459	474.2580773389997	0.0	286.58807295111933	387.82966059262606	0.0	304.92559853804926	481.1824113150909	0.0	282.80367548652623	569.8503085770416	0.0
98	1.6333333333333333	225.0705899237638	552.9682459501338	0.0	200.67709098984582	552.5250491417008	0.0	203.3435062083997	666.4384242012399	0.0	218.29382113590037	769.2439359955912	0.0	188.01610427311613	812.434102926478	0.0	184.39150169420034	800.676110287125	0.0	233.27360008293144	784.8087024040368	0.0	249.00894627623964	556.4568148729712	0.0	249.11102305037534	672.9854618746061	0.0	260.1646764502359	784.2666967636765	0.0	222.54950997430572	825.3926709189942	0.0	240.9141891728573	831.1475705181965	0.0	276.5152374547382	799.4995422824754	0.0	233.3134106937098	356.26958745568504	0.0	209.9357469692376	266.548965507468	0.0	190.19768038420008	320.78375214295676	0.0	195.88369082307693	392.5047927553646	0.0	161.75369230960726	459.59910767573945	0.0	124.32933300519815	474.137135955321	0.0	286.50221985830484	387.7431062726813	0.0	306.01050914506095	480.7475549703404	0.0	280.8318501480762	566.5744016099862	0.0
99	1.65	225.21598389089837	552.9009637386434	0.0	200.75223284121424	552.2706305455109	0.0	203.4069219527786	666.4465887374411	0.0	218.23953433738453	769.273067428006	0.0	187.94313197050812	812.5072201906148	0.0	184.38887658245707	800.6033633264336	0.0	233.09570975304445	784.6776836796321	0.0	249.052564773086	556.1072405894964	0.0	249.30765531217534	673.042314460567	0.0	260.10167893947	784.3431468308364	0.0	222.5769265489218	825.5794035399491	0.0	240.9892682959876	831.2336424164938	0.0	276.4498461047689	799.4493105113104	0.0	233.27653006844167	356.2542884001801	0.0	209.69253304781753	266.5441188117617	0.0	190.16351040876623	320.90810862159736	0.0	195.97269815291492	392.28540504061573	0.0	161.1320756688062	458.03885733458185	0.0	125.2232227274328	473.0343439352449	0.0	286.40238421445633	387.59677505276875	0.0	307.254238996732	480.1148225027969	0.0	279.07742134597686	562.2806618767688	0.0
100	1.6666666666666667	225.4080469817888	552.7578260615355	0.0	200.85485482293308	551.9680423364063	0.0	203.46777666653918	666.3632353556417	0.0	218.21418826814326	769.3190220765003	0.0	187.88307248077606	812.5883605670115	0.0	184.40151174052713	800.5484521045887	0.0	232.93870139519402	784.5365708215119	0.0	249.17316437906865	555.6983518096603	0.0	249.49848333083946	672.9724264878131	0.0	260.06599026840394	784.4572510009214	0.0	222.64011171837458	825.7677704062041	0.0	241.0956019352025	831.3105219721966	0.0	276.35368882115836	799.4079696133223	0.0	233.231093938391	356.2796443616905	0.0	209.46298747281529	266.5375201940426	0.0	190.13673198136874	321.0512045260879	0.0	196.00775675335208	392.07756582804586	0.0	160.31016240185787	456.3626322738429	0.0	125.59299509779017	471.0962789404076	0.0	286.2961483028397	387.3834379096928	0.0	308.6488985681321	479.2513710581153	0.0	277.75410034157443	556.886451974497	0.0
